<?xml version="1.0" encoding="UTF-8"?>
<svg width="1200pt" height="1200pt" version="1.1" viewBox="0 0 1200 1200" xmlns="http://www.w3.org/2000/svg">
    <g>
        <path d="m468.75 698.14v-116.89h-38.176c-1.4805 28.93-6.1875 57.523-14.457 85.312z" />
        <path d="m157.84 355.03 7.2383-86.867c2.9062-34.727 32.457-61.914 67.293-61.914 25.742 0 48.883 14.305 60.395 37.312l5.2695 10.555-33.543 16.781-5.2695-10.555c-5.1367-10.238-15.414-16.594-26.852-16.594-15.488 0-28.613 12.094-29.906 27.523l-7.2383 86.867c-4.3672 52.574-20.68 103.12-47.551 148.07 9.168-0.39453 18.02-3.5234 25.594-8.6992 1.875-4.6328 4.1797-9.0938 7.1992-13.105l25.785-34.406c12.113-16.105 18.75-36.094 18.75-56.25h37.5c0 28.238-9.3359 56.195-26.25 78.75l-25.781 34.387c-2.7188 3.6367-4.2188 8.1016-4.2188 12.621v3.2266c0 11.586 9.4297 21.016 21.02 21.016 5.625 0 10.895-2.1758 14.867-6.1484l25.855-25.855 26.512 26.512-21.355 21.355c11.121 13.387 27.828 21.637 45.602 21.637h11.586l5.1758 10.367c8.3828 16.727 25.199 27.133 43.914 27.133h9.3359c2.3438-13.48 3.7305-27.094 4.3672-40.781-42.617-10.762-74.379-49.105-74.379-95.008 0-26.27 10.219-50.961 28.801-69.523l1.7422-1.7422c-19.969-25.578-30.543-56.289-30.543-88.652 0-30.992 10.238-61.727 28.836-86.492l4.2383-5.6641-3.8828-13.574c-14.473-50.664-61.402-86.062-114.11-86.062-59.738 0-110.36 44.699-117.77 103.97l-12.055 96.414c-5.793 46.367-17.852 91.367-35.906 134.23 26.98-5.1953 52.219-17.363 73.5-35.195 8.4922-24.336 14.078-49.688 16.234-75.637z" />
        <path d="m379.8 656.25h-0.375c-18.395 0-35.758-5.7188-50.082-15.883-6.8242 15.715-10.594 32.797-10.594 49.914 0 24.32 7.3125 47.773 20.383 67.969 19.969-18.039 36.055-40.48 46.668-66.148l-14.586-8.7578 5.6992-17.156c1.0859-3.2812 1.8906-6.6367 2.8867-9.9375z" />
        <path d="m693.75 581.25v116.89l52.633-31.574c-8.2695-27.789-12.977-56.383-14.457-85.312z" />
        <path d="m823.37 758.25c13.07-20.176 20.383-43.648 20.383-67.969 0-12.336-1.8945-24.355-5.3984-36-5.7773 1.1992-11.703 1.9688-17.777 1.9688h-37.875c0.99219 3.3008 1.7812 6.6562 2.8672 9.918l5.6992 17.176-14.586 8.7578c10.613 25.668 26.719 48.109 46.688 66.148z" />
        <path d="m467.89 838.24 0.86328-1.0703v-95.305l-50.477-30.281c-35.285 79.52-115.16 132.17-202.86 132.17-41.832 0-81.883-11.477-116.57-32.98 37.484 65.176 107.83 107.98 186.11 107.98h15.43c65.516 0 126.57-29.344 167.5-80.512z" />
        <path d="m843.75 324.24c0 32.195-10.688 62.758-30.414 87.602l1.6133 1.6133c18.582 18.543 28.801 43.219 28.801 69.504 0 45.898-31.762 84.242-74.383 95.008 0.63672 13.707 2.0234 27.32 4.3672 40.781h46.836c18.711 0 35.531-10.406 43.895-27.133l5.1992-10.367h11.586c17.773 0 34.48-8.2305 45.602-21.637l-21.355-21.355 26.512-26.512 25.855 25.855c3.9727 3.9727 9.2422 6.1484 14.867 6.1484 11.59 0 21.02-9.4297 21.02-21.02v-3.2266c0-4.5195-1.5-8.9805-4.1992-12.617l-25.801-34.406c-16.914-22.535-26.25-50.492-26.25-78.73h37.5c0 20.156 6.6562 40.145 18.75 56.23l25.801 34.426c3 4.0117 5.3047 8.4766 7.1992 13.105 7.5742 5.1953 16.406 8.3047 25.574 8.6992-26.867-44.945-43.164-95.512-47.551-148.07l-7.2383-86.867c-1.2734-15.43-14.418-27.523-29.902-27.523-11.438 0-21.73 6.3555-26.852 16.594l-5.2695 10.555-33.543-16.781 5.2695-10.555c11.512-23.008 34.668-37.312 60.395-37.312 34.82 0 64.387 27.188 67.273 61.914l7.2383 86.867c2.1562 25.969 7.7617 51.32 16.238 75.637 21.301 17.852 46.52 30.02 73.5 35.176-18.055-42.844-30.113-87.863-35.906-134.21l-12.055-96.414c-7.3711-59.27-58.016-103.97-117.75-103.97-60.301 0-117.04 26.57-155.64 72.918l-11.832 14.195 14.082 17.605c19.988 24.938 30.977 56.289 30.977 88.273z" />
        <path d="m367.43 140.23 61.051 20.324-32.438 32.438c-1.4648 1.4453-2.2891 3.4531-2.2891 5.4961 0 4.2734 3.4883 7.7617 7.7617 7.7617h5.3633c1.0859 0 2.1562-0.24219 3.1875-0.69531l157.57-70.012c6.4141-2.8477 13.199-4.293 20.176-4.293 27.395 0 49.688 22.273 49.688 49.668 0 13.988 11.344 25.332 25.312 25.332h5.043c2.7188 0 5.4375-0.42969 8.0625-1.293l83.062-27.711c5.8516-1.9531 9.7695-7.3906 9.7695-13.578 0-3.8047-1.5-7.4062-4.1992-10.105l-18.617-18.602 20.457-40.93c1.5703-3.1133 2.3594-6.4883 2.3594-9.9922 0-6.5078-2.6797-12.449-7.5547-16.762-4.8594-4.2773-11.027-6.1133-17.57-5.4023l-373.07 46.633c-8.1562 1.0312-14.305 7.9844-14.305 16.199 0 7.0508 4.4805 13.273 11.176 15.523z" />
        <path d="m374.06 439.97c-11.492 11.477-17.812 26.738-17.812 42.992 0 33.527 27.281 60.789 60.805 60.789h51.695v-137.68c0-25.051 9.75-48.602 27.449-66.301l15.543-15.523 26.512 26.512-15.543 15.523c-10.609 10.633-16.461 24.75-16.461 39.789v437.68c0 62.043 50.457 112.5 112.5 112.5s112.5-50.457 112.5-112.5c0-20.68-16.82-37.5-37.5-37.5h-9.8984c-15.207 0-27.602 12.375-27.602 27.602 0 10.539 5.8516 19.988 15.262 24.695l11.867 5.9258-16.762 33.543-11.867-5.9258c-22.219-11.102-36-33.414-36-58.238 0-25.988 15.414-48.301 37.5-58.727v-369.05c0-15.039-5.8516-29.176-16.461-39.789l-15.543-15.523 26.512-26.512 15.543 15.523c17.699 17.699 27.449 41.25 27.449 66.301v137.68h51.695c33.523 0 60.805-27.262 60.805-60.789 0-16.258-6.3203-31.52-17.793-42.977l-27.43-27.449 14.793-14.867c19.629-19.648 30.43-45.711 30.43-73.426 0-23.492-8.082-46.52-22.742-64.836l-32.102-40.105-63.695 21.242c-6.4688 2.1211-13.141 3.207-19.855 3.207h-5.043c-34.633 0-62.812-28.18-62.812-62.832 0-8.418-9.375-14.68-17.137-11.117l-157.61 70.031c-5.8672 2.625-12.039 3.918-18.375 3.918h-5.3633c-3.8984 0-7.6328-0.65625-11.27-1.5938l-12.656 16.895c-13.762 18.355-21.336 41.062-21.336 63.992 0 28.5 11.102 55.273 31.238 75.414l13.258 13.258-12.488 14.023zm282.19-158.72h75v37.5h-75zm-112.5 112.5h75v37.5h-75zm0 75h75v37.5h-75zm0 75h75v37.5h-75zm0 75h75v37.5h-75zm-112.5-337.5h75v37.5h-75z" />
        <path d="m712.5 1106.2c-10.332 0-18.75 8.3984-18.75 18.75v18.75h37.5v-18.75c0-10.352-8.418-18.75-18.75-18.75z" />
        <path d="m798.15 1113.2c-12.242 6.6367-21.637 17.438-26.211 30.508h22.727c6.3906 0 11.586-5.1953 11.586-11.586 0-1.8008-0.41406-3.582-1.2188-5.1758z" />
        <path d="m768.75 1017.1c0-25.48 6.375-50.156 18-72.543-14.852-4.6484-29.27-10.613-43.086-17.98-26.906 40.426-72.828 67.125-124.91 67.125v76.895c17.773 3.6172 33.656 12.395 46.238 24.543 9.957-15.824 27.469-26.438 47.512-26.438 20.008 0 37.48 10.574 47.457 26.344 6.4297-6.207 13.836-11.363 21.938-15.543-8.457-19.668-13.145-40.988-13.145-62.402z" />
        <path d="m618.75 1109.7v12.957c0 0.80469-0.20703 1.5547-0.24219 2.3438h0.24219c0 10.352 8.418 18.75 18.75 18.75h15.301c-5.6641-15.883-18.168-28.387-34.051-34.051z" />
        <path d="m744.23 711.58-50.477 30.281v26.887c41.363 0 75 33.637 75 75 0 17.289-3.0938 33.824-8.4922 49.273 31.238 16.875 66.148 25.727 101.85 25.727h15.43c78.281 0 148.65-42.805 186.11-107.98-34.691 21.504-74.738 32.98-116.57 32.98-87.695 0-167.57-52.648-202.86-132.17z" />
        <path d="m401.85 1113.2-6.8633 13.742c-0.82422 1.5781-1.2383 3.3789-1.2383 5.1797 0 6.3906 5.1953 11.586 11.586 11.586h22.727c-4.5742-13.07-13.969-23.867-26.211-30.508z" />
        <path d="m487.5 1106.2c-10.332 0-18.75 8.3984-18.75 18.75v18.75h37.5v-18.75c0-10.352-8.418-18.75-18.75-18.75z" />
        <path d="m474.86 885.84c-20.211 19.48-43.258 35.289-68.324 46.93 16.047 25.312 24.711 54.34 24.711 84.375 0 21.414-4.6875 42.73-13.145 62.398 8.1016 4.1797 15.508 9.3359 21.938 15.543 9.9766-15.766 27.449-26.34 47.457-26.34 20.043 0 37.555 10.613 47.512 26.438 12.582-12.148 28.461-20.926 46.238-24.543v-81.824c-51.055-13.219-91.613-52.578-106.39-102.98z" />
        <path d="m547.2 1143.8h12.957c11.625 0 21.094-9.4688 21.094-21.094v-12.957c-15.883 5.6641-28.387 18.168-34.051 34.051z" />
    </g>
</svg>